# xmcd
#
# Track frame offsets:
#	150
#	14412
#	29708
#	48202
#	66965
#	83234
#	96548
#	109476
#	123781
#	139717
#	154232
#	165889
#	184448
#	200362
#	212175
#	236002
#	255848
#
# Disc length: 3671 seconds
#
# Revision: 0
# Processed by: cddbd v1.5.1PL2 Copyright (c) Steve Scherf et al.
# Submitted via: audiograbber 1.83.01
#
DISCID=ef0e5511
DTITLE=Various Artist - Celebrating Australia's Year of the Outback
DYEAR=2002
DGENRE=Country
TTITLE0=Dave Prior - Outback in my Backyard
TTITLE1=Slim Dusty - Three Rivers Hotel
TTITLE2=Eric Bogle - Jingle Jangle
TTITLE3=Anne Kirkpatrick - Heart of the Land
TTITLE4=John Williamson - Campfire on the Road
TTITLE5=James Blundell - The Valley
TTITLE6=Tanya Self - Dumaresq
TTITLE7=Colin Greatorix - That's Australia
TTITLE8=Ted Egan - The Girls of Meekatharra
TTITLE9=Dale Juner - Country Woman, Country Man
TTITLE10=Warren H. Williams - What a Place I'm In
TTITLE11=Lyn Bowtell - Heart's in the Country
TTITLE12=Grant Richardson - The Auctioneer
TTITLE13=Jade Hurley - Down in the Riverina
TTITLE14=Roo Arcus - I'll call it my Home
TTITLE15=Grant Luhrs - Didyabringyagrogalong
TTITLE16=Arthur Blanch - The Outback's Come to Town
EXTD=Supportin "Youth Muster" A voice for the future... from Alice Springs Augu
EXTD=st 2002
EXTT0=
EXTT1=
EXTT2=
EXTT3=
EXTT4=
EXTT5=
EXTT6=
EXTT7=
EXTT8=
EXTT9=
EXTT10=
EXTT11=
EXTT12=
EXTT13=
EXTT14=
EXTT15=
EXTT16=
PLAYORDER=
